<?xml version="1.0" standalone="no"?>
<!DOCTYPE svg PUBLIC "-//W3C//DTD SVG 20010904//EN"
 "http://www.w3.org/TR/2001/REC-SVG-20010904/DTD/svg10.dtd">
<svg version="1.0" xmlns="http://www.w3.org/2000/svg"
 width="1000.000000pt" height="1000.000000pt" viewBox="0 0 1000.000000 1000.000000"
 preserveAspectRatio="xMidYMid meet">
<metadata>
Created by potrace 1.11, written by Peter Selinger 2001-2013
</metadata>
<g transform="translate(0.000000,1000.000000) scale(0.100000,-0.100000)"
fill="#000000" stroke="none">
<path d="M3295 9110 c-1216 -630 -1667 -869 -1687 -892 -15 -17 -30 -43 -33
-57 -14 -66 -825 -7980 -821 -8009 7 -45 51 -101 92 -118 49 -21 8268 -21
8317 0 42 17 85 68 92 110 10 50 -813 8003 -831 8043 -9 17 -23 38 -33 47 -15
14 -2904 1516 -3233 1682 -86 43 -117 54 -155 54 -44 0 -190 -74 -1708 -860z
m3440 -379 l1390 -721 392 -3797 c216 -2089 392 -3813 393 -3830 l0 -33 -3905
0 c-3117 0 -3905 3 -3905 13 -1 6 176 1728 392 3826 l393 3814 35 22 c19 12
150 81 290 153 140 72 827 428 1525 790 l1270 660 170 -89 c94 -48 795 -412
1560 -808z"/>
<path d="M7380 7168 c-85 -34 -156 -62 -158 -63 -1 -1 21 -42 49 -91 78 -134
246 -478 328 -671 l73 -171 96 35 c54 19 130 47 170 61 42 16 72 33 72 41 0
36 -451 922 -469 920 -3 0 -76 -28 -161 -61z"/>
<path d="M6703 6916 c-84 -28 -155 -55 -158 -58 -4 -3 27 -71 69 -150 84 -161
226 -469 306 -663 30 -71 55 -132 57 -134 2 -3 80 24 174 60 158 60 170 66
164 86 -19 79 -435 914 -454 912 -3 0 -74 -24 -158 -53z"/>
<path d="M6025 6522 c-143 -41 -261 -76 -263 -77 -3 -2 63 -220 118 -390 59
-181 119 -597 155 -1070 18 -233 21 -748 5 -940 -64 -788 -276 -1354 -646
-1720 -236 -234 -514 -368 -874 -421 -156 -22 -490 -15 -631 14 -271 57 -465
157 -626 325 -182 190 -276 424 -304 759 -20 225 10 546 75 821 152 639 516
1299 1019 1848 115 126 301 295 354 322 15 8 96 36 178 62 83 27 152 49 154
51 2 2 -148 452 -155 462 -1 2 -37 -8 -80 -22 -394 -126 -1363 -273 -2019
-306 -109 -6 -234 -7 -277 -4 -77 7 -78 7 -78 -17 0 -43 31 -493 36 -518 4
-18 10 -22 26 -18 47 13 384 60 733 102 204 25 448 57 544 71 95 14 175 23
178 20 3 -3 -33 -49 -79 -103 -614 -713 -986 -1469 -1098 -2233 -27 -181 -44
-466 -36 -599 19 -309 66 -504 181 -736 143 -290 367 -509 670 -659 190 -94
359 -146 595 -183 174 -27 575 -24 766 5 1053 163 1664 929 1800 2257 18 177
24 641 11 860 l-7 130 68 -130 c215 -410 444 -747 727 -1070 48 -55 91 -101
96 -103 4 -2 86 101 182 228 l174 232 -152 152 c-320 319 -542 627 -750 1041
-228 452 -369 895 -497 1566 l-13 67 -260 -76z"/>
</g>
</svg>
